<svg width="38" height="38" viewBox="0 0 38 38" fill="none" xmlns="http://www.w3.org/2000/svg">
<mask id="mask0_33_1123" style="mask-type:luminance" maskUnits="userSpaceOnUse" x="4" y="9" width="30" height="20">
<path fillRule="evenodd" clipRule="evenodd" d="M33.2381 11.0247C33.2349 10.9108 33.2017 10.8031 33.1716 10.6938C33.1479 10.602 33.1368 10.5086 33.0972 10.4247C33.0608 10.3423 32.999 10.2758 32.9452 10.1998C32.8787 10.1033 32.8185 10.0067 32.733 9.9275C32.7188 9.91325 32.7125 9.89425 32.6966 9.88158C32.6396 9.8325 32.57 9.81508 32.5082 9.7755C32.4132 9.71375 32.3198 9.65042 32.2121 9.60925C32.106 9.57125 32.0015 9.56175 31.8923 9.54592C31.8163 9.53483 31.7482 9.5 31.6674 9.5H23.7508C22.8752 9.5 22.1675 10.2093 22.1675 11.0833C22.1675 11.9573 22.8752 12.6667 23.7508 12.6667H28.2253L21.835 20.121L15.0646 16.0598C14.3949 15.6544 13.5335 15.8033 13.0332 16.4033L5.11653 25.9033C4.55762 26.5747 4.64787 27.5737 5.3192 28.1327C5.61687 28.3797 5.9747 28.5 6.33253 28.5C6.78695 28.5 7.23662 28.3068 7.55012 27.93L14.5991 19.4718L21.352 23.5252C22.0154 23.9226 22.8673 23.7833 23.3692 23.1974L30.0841 15.3631V19C30.0841 19.874 30.7919 20.5833 31.6674 20.5833C32.543 20.5833 33.2508 19.874 33.2508 19V11.0833C33.2508 11.0627 33.2397 11.0453 33.2381 11.0247Z" fill="white"/>
</mask>
<g mask="url(#mask0_33_1123)">
<rect width="38" height="38" fill="#8D57FA"/>
</g>
</svg>
