<svg width="72" height="72" viewBox="0 0 72 72" fill="none" xmlns="http://www.w3.org/2000/svg">
<path opacity="0.4" d="M36 66C52.5685 66 66 52.5685 66 36C66 19.4315 52.5685 6 36 6C19.4315 6 6 19.4315 6 36C6 52.5685 19.4315 66 36 66Z" fill="#8D57FA"/>
<path d="M31.7403 46.7398C31.1403 46.7398 30.5703 46.4998 30.1503 46.0798L21.6603 37.5898C20.7903 36.7198 20.7903 35.2798 21.6603 34.4098C22.5303 33.5398 23.9703 33.5398 24.8403 34.4098L31.7403 41.3098L47.1603 25.8898C48.0303 25.0198 49.4703 25.0198 50.3403 25.8898C51.2103 26.7598 51.2103 28.1998 50.3403 29.0698L33.3303 46.0798C32.9103 46.4998 32.3403 46.7398 31.7403 46.7398Z" fill="#8D57FA"/>
</svg>
